<svg width="141" height="55" viewBox="0 0 141 55" fill="none" xmlns="http://www.w3.org/2000/svg">
<path d="M1.96 33V15.5H7.98V33H1.96ZM2.31 11.825C1.61 11.1483 1.26 10.3083 1.26 9.305C1.26 8.30167 1.61 7.46167 2.31 6.785C3.03333 6.085 3.90833 5.735 4.935 5.735C5.96167 5.735 6.83667 6.085 7.56 6.785C8.28333 7.46167 8.645 8.30167 8.645 9.305C8.645 10.285 8.28333 11.125 7.56 11.825C6.83667 12.5017 5.96167 12.84 4.935 12.84C3.90833 12.84 3.03333 12.5017 2.31 11.825ZM23.5263 15.5H29.8963L21.6713 33.945C20.7613 35.9517 19.6996 37.41 18.4863 38.32C17.2963 39.2533 15.8146 39.72 14.0413 39.72C12.9446 39.72 11.8246 39.58 10.6813 39.3V34.26C10.9846 34.26 11.2996 34.26 11.6263 34.26C11.953 34.2833 12.198 34.295 12.3613 34.295C12.5246 34.3183 12.6413 34.33 12.7113 34.33C13.598 34.33 14.298 34.1783 14.8113 33.875C15.348 33.595 15.7913 33.0583 16.1413 32.265L16.4213 31.67L10.0163 15.5H16.4213L19.7813 25.335L23.5263 15.5ZM47.702 26.35H36.502C37.1553 27.68 38.462 28.345 40.422 28.345C41.962 28.345 43.4903 27.89 45.007 26.98L47.177 31.075C45.1237 32.6383 42.802 33.42 40.212 33.42C37.3653 33.42 35.0087 32.545 33.142 30.795C31.2987 29.045 30.377 26.8633 30.377 24.25C30.377 21.6833 31.2753 19.5133 33.072 17.74C34.892 15.9667 37.1087 15.08 39.722 15.08C42.1953 15.08 44.202 15.885 45.742 17.495C47.3053 19.105 48.087 21.065 48.087 23.375C48.087 24.3783 47.9587 25.37 47.702 26.35ZM36.292 22.43H42.382C42.3587 21.66 42.067 21.03 41.507 20.54C40.947 20.05 40.2703 19.805 39.477 19.805C38.707 19.805 38.042 20.0383 37.482 20.505C36.922 20.9483 36.5253 21.59 36.292 22.43ZM68.2596 22.22V33H62.2396V23.095C62.2396 22.325 61.9946 21.7067 61.5046 21.24C61.0379 20.75 60.4312 20.505 59.6846 20.505C58.9379 20.505 58.3312 20.75 57.8646 21.24C57.3979 21.7067 57.1646 22.325 57.1646 23.095V33H51.1446V15.5H56.6396V16.935C57.9462 15.6983 59.5912 15.08 61.5746 15.08C63.6046 15.08 65.2262 15.7333 66.4396 17.04C67.6529 18.3233 68.2596 20.05 68.2596 22.22ZM71.1534 24.25C71.1067 21.7533 72.0284 19.595 73.9184 17.775C75.8084 15.9317 78.06 15.0333 80.6734 15.08C83.2867 15.0333 85.5384 15.9317 87.4284 17.775C89.3417 19.595 90.275 21.7533 90.2284 24.25C90.275 26.7467 89.3417 28.9167 87.4284 30.76C85.5384 32.58 83.2867 33.4667 80.6734 33.42C78.06 33.4667 75.8084 32.58 73.9184 30.76C72.0284 28.9167 71.1067 26.7467 71.1534 24.25ZM83.1234 26.875C83.7534 26.175 84.0684 25.3 84.0684 24.25C84.0684 23.2 83.7417 22.3367 83.0884 21.66C82.4584 20.96 81.665 20.61 80.7084 20.61C79.705 20.61 78.8884 20.9483 78.2584 21.625C77.6284 22.3017 77.3134 23.1767 77.3134 24.25C77.3134 25.3467 77.6284 26.2333 78.2584 26.91C78.8884 27.5633 79.705 27.89 80.7084 27.89C81.6884 27.89 82.4934 27.5517 83.1234 26.875ZM138.362 22.85V33H132.867V31.565C131.56 32.8017 129.88 33.42 127.827 33.42C125.984 33.42 124.514 32.9067 123.417 31.88C122.344 30.83 121.807 29.535 121.807 27.995C121.807 26.3617 122.414 25.09 123.627 24.18C124.864 23.2467 126.544 22.78 128.667 22.78H132.342V22.5C132.342 21.0067 131.455 20.26 129.682 20.26C128.912 20.26 128.2 20.4233 127.547 20.75C126.917 21.0767 126.17 21.625 125.307 22.395L122.507 18.58C124.817 16.2467 127.454 15.08 130.417 15.08C132.89 15.08 134.827 15.7567 136.227 17.11C137.65 18.44 138.362 20.3533 138.362 22.85ZM132.342 26.595V26.455H129.507C128.434 26.455 127.897 26.8983 127.897 27.785C127.897 28.205 128.049 28.5433 128.352 28.8C128.679 29.0333 129.122 29.15 129.682 29.15C130.475 29.15 131.117 28.9167 131.607 28.45C132.097 27.9833 132.342 27.365 132.342 26.595Z" fill="white"/>
<circle cx="5" cy="9" r="5" fill="#C12A33"/>
<path d="M95.1111 38.6C93.3091 38.6 91.5476 39.0809 90.0493 39.9819C88.5509 40.883 87.3831 42.1636 86.6935 43.662C86.0039 45.1603 85.8235 46.8091 86.1751 48.3997C86.5266 49.9904 87.3944 51.4515 88.6686 52.5983C89.9428 53.7451 91.5662 54.526 93.3336 54.8424C95.101 55.1588 96.9329 54.9964 98.5978 54.3758C100.263 53.7552 101.686 52.7042 102.687 51.3557C103.688 50.0072 104.222 48.4218 104.222 46.8C104.216 44.7538 103.356 42.7843 101.812 41.2822L105.978 37.2222L106 37.1956L106.007 37.2044L110.188 41.2844C108.643 42.7853 107.783 44.7543 107.778 46.8C107.778 48.4218 108.312 50.0072 109.313 51.3557C110.314 52.7042 111.737 53.7552 113.402 54.3758C115.067 54.9964 116.899 55.1588 118.666 54.8424C120.434 54.526 122.057 53.7451 123.331 52.5983C124.606 51.4515 125.473 49.9904 125.825 48.3997C126.176 46.8091 125.996 45.1603 125.306 43.662C124.617 42.1636 123.449 40.883 121.951 39.9819C120.452 39.0809 118.691 38.6 116.889 38.6C116.156 38.6 115.452 38.6978 114.77 38.8467L109.854 32.5267L117.422 23.3556C121.247 18.44 115.785 15 115.785 15L97.2296 38.8467C96.5481 38.7 95.8444 38.6 95.1111 38.6ZM99.5556 46.8C99.5556 47.3253 99.4406 47.8454 99.2172 48.3307C98.9939 48.816 98.6665 49.257 98.2538 49.6284C97.8411 49.9999 97.3512 50.2945 96.8119 50.4955C96.2727 50.6965 95.6948 50.8 95.1111 50.8C94.5275 50.8 93.9495 50.6965 93.4103 50.4955C92.8711 50.2945 92.3811 49.9999 91.9684 49.6284C91.5557 49.257 91.2283 48.816 91.005 48.3307C90.7816 47.8454 90.6667 47.3253 90.6667 46.8C90.6667 45.7391 91.1349 44.7217 91.9684 43.9716C92.8019 43.2214 93.9324 42.8 95.1111 42.8C96.2899 42.8 97.4203 43.2214 98.2538 43.9716C99.0873 44.7217 99.5556 45.7391 99.5556 46.8ZM121.333 46.8C121.333 47.8609 120.865 48.8783 120.032 49.6284C119.198 50.3786 118.068 50.8 116.889 50.8C115.71 50.8 114.58 50.3786 113.746 49.6284C112.913 48.8783 112.444 47.8609 112.444 46.8C112.444 45.7391 112.913 44.7217 113.746 43.9716C114.58 43.2214 115.71 42.8 116.889 42.8C118.068 42.8 119.198 43.2214 120.032 43.9716C120.865 44.7217 121.333 45.7391 121.333 46.8ZM96.2173 15C96.2173 15 90.7556 18.44 94.5802 23.3556L100.099 30.4778L104.168 25.2467L96.2173 15Z" fill="#C12A33"/>
</svg>
